<?xml version="1.0" encoding="UTF-8" standalone="no"?>
<!DOCTYPE svg PUBLIC "-//W3C//DTD SVG 1.1//EN"
"http://www.w3.org/Graphics/SVG/1.1/DTD/svg11.dtd">
<svg viewBox="0 0 1100 618" version="1.1" xmlns="http://www.w3.org/2000/svg" xmlns:xlink="http://www.w3.org/1999/xlink">
<defs>
<clipPath id="c0_7"><path d="M0,618.7V0H1100V618.7Z"/></clipPath>
<style type="text/css"><![CDATA[
.g0_7{
fill: #FFFFFF;
}
.g1_7{
fill: none;
stroke: #9900FF;
stroke-width: 4.59;
stroke-linecap: butt;
stroke-linejoin: round;
}
]]></style>
</defs>
<g clip-path="url(#c0_7)">
<path fill-rule="evenodd" d="M0,0H1100V618.7H0V0Z" class="g0_7"/>
<path fill-rule="evenodd" d="M0,0H1100V618.8H0V0Z" class="g0_7"/>
</g>
<path d="M117.7,20.1L98.4,97.2L21.3,116.5L117.7,20.1h968.1V598.7H21.3V116.5" class="g1_7"/>
<path fill-rule="evenodd" d="M14.2,35.7c0,-2.7,.7,-5.5,2.1,-7.9c1.4,-2.3,3.4,-4.3,5.7,-5.7C24.4,20.7,27.2,20,29.9,20H144.8c2.8,0,5.5,.7,7.9,2.1c2.4,1.4,4.4,3.4,5.8,5.8c1.3,2.4,2.1,5.1,2.1,7.9V98.7c0,2.8,-.8,5.5,-2.1,7.9c-1.4,2.4,-3.4,4.4,-5.8,5.8c-2.4,1.4,-5.1,2.1,-7.9,2.1H29.9c-2.8,0,-5.5,-.7,-7.9,-2.1C19.6,111,17.6,109,16.2,106.6c-1.3,-2.4,-2.1,-5.1,-2.1,-7.9l.1,-63Z" class="g0_7"/>
<path d="M14.2,35.7v0c0,-2.7,.7,-5.5,2.1,-7.9c1.4,-2.3,3.4,-4.3,5.7,-5.7C24.4,20.7,27.2,20,29.9,20H144.8c2.8,0,5.5,.7,7.9,2.1c2.4,1.4,4.4,3.4,5.8,5.8c1.3,2.4,2.1,5.1,2.1,7.9V98.7c0,2.8,-.8,5.5,-2.1,7.9c-1.4,2.4,-3.4,4.4,-5.8,5.8c-2.4,1.4,-5.1,2.1,-7.9,2.1H29.9c-2.8,0,-5.5,-.7,-7.9,-2.1C19.6,111,17.6,109,16.2,106.6c-1.3,-2.4,-2.1,-5.1,-2.1,-7.9l.1,-63Z" class="g1_7"/>
<image clip-path="url(#c0_7)" preserveAspectRatio="none" x="23" y="32" width="128" height="67" xlink:href="img/1.png"/>
<path d="M181.2,106.3h4.6m13.8,.1h4.6m13.8,0h4.6m13.7,0h4.6m13.8,0h4.6m13.8,0h4.5m13.8,0H296m13.8,.1h4.6m13.7,0h4.6m13.8,0h4.6m13.8,0h4.6m13.7,.1h4.6m13.8,0h4.6m13.7,0h4.6m13.8,0l4.6,.1m13.8,0h4.6m13.7,0h4.6m13.8,0H498m13.8,.1h4.6m13.7,0h4.6m13.8,0h4.6m13.7,0h4.6m13.8,0h4.6m13.8,0h4.6m13.7,.1h4.6m13.8,0h4.6m13.8,0h4.5m13.8,0h4.6m13.8,.1H700m13.7,0h4.6m13.8,0h4.6m13.8,0l4.6,.1m13.7,0h4.6m13.8,0h4.6m13.8,0h4.5m13.8,0h4.6m13.8,0h4.6m13.7,.1h4.6m13.8,0h4.6m13.8,0H902m13.7,0h4.6m13.8,.1h4.6m13.8,0H957m13.8,0h4.6m13.8,0h4.6m13.7,.1h4.6m13.8,0h4.6m13.8,0h4.6m13.7,0h4.6m13.8,0h2.9" class="g1_7"/>
<path fill-rule="evenodd" d="M567.9,563.5H83.3V149.8h969.2V563.5H567.9Z" class="g0_7"/>
<path fill-rule="evenodd" d="M149.3,244.9H498.9V191.6H149.3v53.3Z" class="g0_7"/>
<path fill-rule="evenodd" d="M498.8,244.2H842.7V194.4H498.8v49.8Z" class="g0_7"/>
<path fill-rule="evenodd" d="M149.3,327.4H463.9V274.1H149.3v53.3Z" class="g0_7"/>
<path fill-rule="evenodd" d="M463.8,326.7H814.3V276.9H463.8v49.8Z" class="g0_7"/>
<path fill-rule="evenodd" d="M149.3,404.3h238V354.5h-238v49.8Z" class="g0_7"/>
<path fill-rule="evenodd" d="M149.3,486.8H478.1V433.4H149.3v53.4Z" class="g0_7"/>
<path fill-rule="evenodd" d="M478,486H987.1V436.2H478V486Z" class="g0_7"/>
<path fill-rule="evenodd" d="M149.3,569.1H470.9V515.8H149.3v53.3Z" class="g0_7"/>
<path fill-rule="evenodd" d="M470.9,568.4H803.2V518.6H470.9v49.8Z" class="g0_7"/>
<g clip-path="url(#c0_7)">
<path fill-rule="evenodd" d="M149.3,650.9H366.2V601.1H149.3v49.8Z" class="g0_7"/>
<path fill-rule="evenodd" d="M366.2,651.6h20.9V598.3H366.2v53.3Z" class="g0_7"/>
</g>
</svg>