<?xml version="1.0" encoding="UTF-8" standalone="no"?>
<!DOCTYPE svg PUBLIC "-//W3C//DTD SVG 1.1//EN"
"http://www.w3.org/Graphics/SVG/1.1/DTD/svg11.dtd">
<svg viewBox="0 0 1100 618" version="1.1" xmlns="http://www.w3.org/2000/svg" xmlns:xlink="http://www.w3.org/1999/xlink">
<defs>
<clipPath id="c0"><path d="M0,618.7V0H1100V618.7Z"/></clipPath>
<style type="text/css"><![CDATA[
.g0{
fill: #FFFFFF;
}
.g1{
fill: none;
stroke: #9900FF;
stroke-width: 4.59;
stroke-linecap: butt;
stroke-linejoin: round;
}
]]></style>
</defs>
<g clip-path="url(#c0)">
<path fill-rule="evenodd" d="M0,0H1100V618.7H0V0Z" class="g0"/>
<path fill-rule="evenodd" d="M0,0H1100V618.8H0V0Z" class="g0"/>
</g>
<path d="M114.2,20.1L94.9,97.2L17.7,116.5L114.2,20.1h968.1V598.7H17.7V116.5" class="g1"/>
<path fill-rule="evenodd" d="M10.7,35.7c0,-2.7,.7,-5.5,2.1,-7.9c1.4,-2.3,3.4,-4.3,5.7,-5.7C20.9,20.7,23.6,20,26.4,20H141.3c2.8,0,5.5,.7,7.9,2.1c2.4,1.4,4.4,3.4,5.8,5.8c1.3,2.4,2.1,5.1,2.1,7.9V98.7c0,2.8,-.8,5.5,-2.1,7.9c-1.4,2.4,-3.4,4.4,-5.8,5.8c-2.4,1.4,-5.1,2.1,-7.9,2.1H26.4c-2.8,0,-5.5,-.7,-7.9,-2.1C16.1,111,14.1,109,12.7,106.6c-1.4,-2.4,-2.1,-5.1,-2.1,-7.9l.1,-63Z" class="g0"/>
<path d="M10.7,35.7v0c0,-2.7,.7,-5.5,2.1,-7.9c1.4,-2.3,3.4,-4.3,5.7,-5.7C20.9,20.7,23.6,20,26.4,20H141.3c2.8,0,5.5,.7,7.9,2.1c2.4,1.4,4.4,3.4,5.8,5.8c1.3,2.4,2.1,5.1,2.1,7.9V98.7c0,2.8,-.8,5.5,-2.1,7.9c-1.4,2.4,-3.4,4.4,-5.8,5.8c-2.4,1.4,-5.1,2.1,-7.9,2.1H26.4c-2.8,0,-5.5,-.7,-7.9,-2.1C16.1,111,14.1,109,12.7,106.6c-1.4,-2.4,-2.1,-5.1,-2.1,-7.9l.1,-63Z" class="g1"/>
<g clip-path="url(#c0)">
<image preserveAspectRatio="none" x="19" y="32" width="129" height="67" xlink:href="img/1.png"/>
<image preserveAspectRatio="none" x="276" y="242" width="481" height="252" xlink:href="img/2.png"/>
</g>
</svg>